Coordinates
version=1
nRows=17
nColumns=24
inDegrees=yes

Units are S.I. units (second, meters, Newtons, ...)
Angles are in degrees.

endheader
time	pelvis_tilt	pelvis_list	pelvis_rotation	pelvis_tx	pelvis_ty	pelvis_tz	hip_flexion_r	hip_adduction_r	hip_rotation_r	knee_angle_r	ankle_angle_r	subtalar_angle_r	mtp_angle_r	hip_flexion_l	hip_adduction_l	hip_rotation_l	knee_angle_l	ankle_angle_l	subtalar_angle_l	mtp_angle_l	lumbar_extension	lumbar_bending	lumbar_rotation
      0.55800000	     -0.15547363	      6.53210826	      0.52354510	     -0.79470375	      0.99171417	      0.23080156	     25.16474321	     -5.52269728	     -4.05855023	     -2.25871274	      7.00047910	     -6.53502897	      9.19756239	    -19.12780197	      9.34523394	      7.80825204	     -4.85015531	      8.33971854	    -14.76435553	      5.76961341	     -2.80105196	     -8.31294040	     -3.68128092
      0.56216667	     -0.17049314	      6.47700976	      0.58912416	     -0.78845951	      0.99115906	      0.23116469	     25.18584756	     -5.45184999	     -3.80848358	     -2.68879885	      7.04989058	     -6.73599451	      9.17830309	    -19.18229376	      9.23918087	      7.75129992	     -5.44859052	      8.38167916	    -14.50135694	      5.84972182	     -2.73751124	     -8.22595714	     -3.80783001
      0.56633333	     -0.14754201	      6.40381557	      0.65417827	     -0.78214987	      0.99069193	      0.23149502	     25.16109539	     -5.36570643	     -3.59732838	     -3.17126827	      7.11254278	     -6.90985724	      9.17657436	    -19.28336997	      9.12061092	      7.76416388	     -6.04069242	      8.37521299	    -14.38963152	      5.89405866	     -2.69349073	     -8.09510172	     -3.86093205
      0.57050000	     -0.18872932	      6.31870942	      0.72458832	     -0.77579013	      0.99017528	      0.23189019	     25.17560504	     -5.25605527	     -3.29592978	     -3.63735458	      6.98644485	     -7.24903921	      9.18229893	    -19.24822064	      8.97716274	      7.57691848	     -6.76115972	      8.43357553	    -13.89856034	      6.04353858	     -2.59858870	     -7.97936957	     -4.00698389
      0.57466667	     -0.18542675	      6.22067702	      0.78565546	     -0.76938084	      0.98974427	      0.23227986	     25.14331147	     -5.13185414	     -3.03179020	     -4.15026023	      6.87849273	     -7.55168254	      9.20717884	    -19.25912622	      8.82609718	      7.42449082	     -7.48516053	      8.44408085	    -13.53009771	      6.25416953	     -2.53786807	     -7.83181053	     -4.07999156
      0.57883333	     -0.19433344	      6.12815872	      0.84336439	     -0.76293986	      0.98931930	      0.23267244	     25.13027694	     -5.00988529	     -2.75926860	     -4.71105349	      6.77471251	     -7.86372489	      9.23466810	    -19.24560526	      8.68782842	      7.31681668	     -8.23076603	      8.42040078	    -13.26771921	      6.41902783	     -2.45463460	     -7.68906131	     -4.16457048
      0.58300000	     -0.20299591	      6.01179772	      0.90064630	     -0.75642759	      0.98893673	      0.23308849	     25.09229017	     -4.85909361	     -2.50413823	     -5.25078799	      6.50904756	     -8.23452341	      9.27658259	    -19.19419214	      8.51712649	      7.09151068	     -9.04771517	      8.35555170	    -12.86322868	      6.64007506	     -2.34862119	     -7.51838614	     -4.24681608
      0.58716667	     -0.19405282	      5.89167777	      0.95410207	     -0.74990667	      0.98860402	      0.23352428	     25.03564148	     -4.70054597	     -2.24507257	     -5.81540139	      6.23298545	     -8.60144181	      9.33538376	    -19.14039275	      8.34168435	      6.86482209	     -9.89696213	      8.27314571	    -12.45157717	      6.91542571	     -2.29033349	     -7.35101002	     -4.30409483
      0.59133333	     -0.21425808	      5.76617533	      1.00711033	     -0.74333211	      0.98826895	      0.23396338	     25.01050004	     -4.53536653	     -2.01882398	     -6.40080734	      5.90275462	     -8.94827836	      9.39989409	    -19.02974597	      8.16381460	      6.63271251	    -10.79563434	      8.13412927	    -12.08421657	      7.20800605	     -2.17181877	     -7.16851129	     -4.35658280
      0.59550000	     -0.21730043	      5.63428562	      1.05521143	     -0.73674122	      0.98799301	      0.23442654	     24.95903749	     -4.35935890	     -1.78833651	     -6.98511793	      5.53578390	     -9.32691359	      9.47778483	    -18.90445469	      7.97330194	      6.33952344	    -11.74660689	      7.97994266	    -11.63816879	      7.55970525	     -2.07743089	     -6.98540243	     -4.40502194
      0.59966667	     -0.17630646	      5.49813864	      1.10008096	     -0.73015738	      0.98778916	      0.23489919	     24.87376132	     -4.18393367	     -1.63935242	     -7.60477852	      5.17207556	     -9.61056846	     11.11870716	    -18.78111083	      7.76802227	      5.97348064	    -12.76662778	      7.71472039	    -11.23151514	     14.89415962	     -2.03580023	     -6.79468517	     -4.38161003
      0.60383333	     -0.19164302	      5.36483136	      1.13826839	     -0.72354600	      0.98755893	      0.23540360	     24.83683739	     -3.99974843	     -1.40959254	     -8.21041730	      4.76205863	    -10.02749030	     11.10210818	    -18.58639576	      7.57693499	      5.67544958	    -13.81137339	      7.44546198	    -10.86599501	     14.96425032	     -1.91711852	     -6.61110929	     -4.45221140
      0.60800000	     -0.19458385	      5.22185905	      1.16804605	     -0.71692417	      0.98737181	      0.23592702	     24.79428752	     -3.80639824	     -1.23319342	     -8.83792612	      4.34830037	    -10.33613999	     11.09739518	    -18.36092822	      7.36854513	      5.30504817	    -14.93067296	      7.16013951	    -10.41157608	     15.09083872	     -1.80978890	     -6.41520845	     -4.46182013
      0.61216667	     -0.18549169	      5.07296773	      1.18737058	     -0.71032209	      0.98721586	      0.23648109	     24.75492698	     -3.60386578	     -1.07720298	     -9.50119590	      3.93333620	    -10.64833940	     11.10019015	    -18.11112339	      7.14847762	      4.89416140	    -16.11386844	      6.84862270	     -9.91588662	     15.30013208	     -1.72459007	     -6.21087574	     -4.46036026
      0.61633333	     -0.18866706	      4.92623645	      1.20401380	     -0.70371843	      0.98708025	      0.23704816	     24.72687534	     -3.40483109	     -0.93625966	    -10.16472778	      3.53622004	    -10.90040636	     11.10703020	    -17.81131007	      6.92509443	      4.46496685	    -17.35246329	      6.45924539	     -9.45154662	     15.55710145	     -1.61438081	     -6.01394915	     -4.45233312
      0.62050000	     -0.14892215	      4.76385883	      1.20589561	     -0.69714473	      0.98703327	      0.23766088	     24.64867536	     -3.18103972	     -0.77543684	    -10.81698694	      3.07113385	    -11.26868036	     11.30201479	    -17.53219770	      6.67591371	      4.00532898	    -18.61042151	      5.94245030	     -9.04957153	     21.07453080	     -1.56476589	     -5.79202403	     -4.43761706
      0.62466667	     -0.16216837	      4.62646438	      1.20690669	     -0.69059360	      0.98692276	      0.23826174	     24.67501363	     -2.99629822	     -0.71804142	    -11.57498019	      2.80712446	    -11.31395963	     11.29743109	    -17.14519229	      6.45214798	      3.54108189	    -19.96438409	      5.45747762	     -8.58970584	     21.14107065	     -1.44620977	     -5.60517960	     -4.40119902
